<mxfile host="app.diagrams.net" modified="2021-12-12T09:21:11.786Z" agent="5.0 (Macintosh; Intel Mac OS X 10_15_7) AppleWebKit/537.36 (KHTML, like Gecko) Chrome/96.0.4664.93 Safari/537.36" etag="MqNfrgejSbY8b6m94fR8" version="15.5.4" type="github">
  <diagram id="G8wTLtnxxF_a71g-igOY" name="Page-1">
    <mxGraphModel dx="1125" dy="698" grid="1" gridSize="10" guides="1" tooltips="1" connect="1" arrows="1" fold="1" page="1" pageScale="1" pageWidth="827" pageHeight="1169" math="0" shadow="0">
      <root>
        <mxCell id="0" />
        <mxCell id="1" parent="0" />
        <mxCell id="8IRLoSpyoqPYh5H4hLr8-25" value="" style="rounded=0;whiteSpace=wrap;html=1;" vertex="1" parent="1">
          <mxGeometry x="80" y="320" width="840" height="380" as="geometry" />
        </mxCell>
        <mxCell id="8IRLoSpyoqPYh5H4hLr8-8" value="" style="group" vertex="1" connectable="0" parent="1">
          <mxGeometry x="90" y="340" width="240" height="70" as="geometry" />
        </mxCell>
        <mxCell id="8IRLoSpyoqPYh5H4hLr8-3" value="" style="rounded=0;whiteSpace=wrap;html=1;" vertex="1" parent="8IRLoSpyoqPYh5H4hLr8-8">
          <mxGeometry width="240" height="70" as="geometry" />
        </mxCell>
        <mxCell id="8IRLoSpyoqPYh5H4hLr8-4" value="服务A" style="text;html=1;strokeColor=none;fillColor=none;align=center;verticalAlign=middle;whiteSpace=wrap;rounded=0;" vertex="1" parent="8IRLoSpyoqPYh5H4hLr8-8">
          <mxGeometry width="60" height="30" as="geometry" />
        </mxCell>
        <mxCell id="8IRLoSpyoqPYh5H4hLr8-5" value="WS模块" style="rounded=0;whiteSpace=wrap;html=1;" vertex="1" parent="8IRLoSpyoqPYh5H4hLr8-8">
          <mxGeometry x="130" y="20" width="70" height="40" as="geometry" />
        </mxCell>
        <mxCell id="8IRLoSpyoqPYh5H4hLr8-13" value="HTTP模块" style="rounded=0;whiteSpace=wrap;html=1;" vertex="1" parent="8IRLoSpyoqPYh5H4hLr8-8">
          <mxGeometry x="50" y="20" width="70" height="40" as="geometry" />
        </mxCell>
        <mxCell id="8IRLoSpyoqPYh5H4hLr8-9" value="" style="group" vertex="1" connectable="0" parent="1">
          <mxGeometry x="340" y="340" width="240" height="70" as="geometry" />
        </mxCell>
        <mxCell id="8IRLoSpyoqPYh5H4hLr8-10" value="" style="rounded=0;whiteSpace=wrap;html=1;" vertex="1" parent="8IRLoSpyoqPYh5H4hLr8-9">
          <mxGeometry width="240" height="70" as="geometry" />
        </mxCell>
        <mxCell id="8IRLoSpyoqPYh5H4hLr8-11" value="服务B" style="text;html=1;strokeColor=none;fillColor=none;align=center;verticalAlign=middle;whiteSpace=wrap;rounded=0;" vertex="1" parent="8IRLoSpyoqPYh5H4hLr8-9">
          <mxGeometry width="60" height="30" as="geometry" />
        </mxCell>
        <mxCell id="8IRLoSpyoqPYh5H4hLr8-12" value="WS模块" style="rounded=0;whiteSpace=wrap;html=1;" vertex="1" parent="8IRLoSpyoqPYh5H4hLr8-9">
          <mxGeometry x="130" y="20" width="70" height="40" as="geometry" />
        </mxCell>
        <mxCell id="8IRLoSpyoqPYh5H4hLr8-14" value="HTTP模块" style="rounded=0;whiteSpace=wrap;html=1;" vertex="1" parent="8IRLoSpyoqPYh5H4hLr8-9">
          <mxGeometry x="50" y="20" width="70" height="40" as="geometry" />
        </mxCell>
        <mxCell id="8IRLoSpyoqPYh5H4hLr8-15" value="" style="group" vertex="1" connectable="0" parent="1">
          <mxGeometry x="587" y="340" width="240" height="70" as="geometry" />
        </mxCell>
        <mxCell id="8IRLoSpyoqPYh5H4hLr8-16" value="" style="rounded=0;whiteSpace=wrap;html=1;" vertex="1" parent="8IRLoSpyoqPYh5H4hLr8-15">
          <mxGeometry width="240" height="70" as="geometry" />
        </mxCell>
        <mxCell id="8IRLoSpyoqPYh5H4hLr8-17" value="服务C" style="text;html=1;strokeColor=none;fillColor=none;align=center;verticalAlign=middle;whiteSpace=wrap;rounded=0;" vertex="1" parent="8IRLoSpyoqPYh5H4hLr8-15">
          <mxGeometry width="60" height="30" as="geometry" />
        </mxCell>
        <mxCell id="8IRLoSpyoqPYh5H4hLr8-18" value="WS模块" style="rounded=0;whiteSpace=wrap;html=1;" vertex="1" parent="8IRLoSpyoqPYh5H4hLr8-15">
          <mxGeometry x="130" y="20" width="70" height="40" as="geometry" />
        </mxCell>
        <mxCell id="8IRLoSpyoqPYh5H4hLr8-19" value="HTTP模块" style="rounded=0;whiteSpace=wrap;html=1;" vertex="1" parent="8IRLoSpyoqPYh5H4hLr8-15">
          <mxGeometry x="50" y="20" width="70" height="40" as="geometry" />
        </mxCell>
        <mxCell id="8IRLoSpyoqPYh5H4hLr8-29" style="edgeStyle=orthogonalEdgeStyle;rounded=0;orthogonalLoop=1;jettySize=auto;html=1;entryX=0.5;entryY=0;entryDx=0;entryDy=0;" edge="1" parent="1" source="8IRLoSpyoqPYh5H4hLr8-23" target="8IRLoSpyoqPYh5H4hLr8-25">
          <mxGeometry relative="1" as="geometry" />
        </mxCell>
        <mxCell id="8IRLoSpyoqPYh5H4hLr8-23" value="Nginx" style="rounded=0;whiteSpace=wrap;html=1;" vertex="1" parent="1">
          <mxGeometry x="80" y="210" width="840" height="80" as="geometry" />
        </mxCell>
        <mxCell id="8IRLoSpyoqPYh5H4hLr8-26" value="" style="group" vertex="1" connectable="0" parent="1">
          <mxGeometry x="80" y="60" width="840" height="100" as="geometry" />
        </mxCell>
        <mxCell id="8IRLoSpyoqPYh5H4hLr8-24" value="" style="rounded=0;whiteSpace=wrap;html=1;" vertex="1" parent="8IRLoSpyoqPYh5H4hLr8-26">
          <mxGeometry width="840" height="100" as="geometry" />
        </mxCell>
        <mxCell id="8IRLoSpyoqPYh5H4hLr8-1" value="用户A" style="rounded=0;whiteSpace=wrap;html=1;" vertex="1" parent="8IRLoSpyoqPYh5H4hLr8-26">
          <mxGeometry x="60" y="20" width="120" height="60" as="geometry" />
        </mxCell>
        <mxCell id="8IRLoSpyoqPYh5H4hLr8-2" value="用户B" style="rounded=0;whiteSpace=wrap;html=1;" vertex="1" parent="8IRLoSpyoqPYh5H4hLr8-26">
          <mxGeometry x="340" y="20" width="120" height="60" as="geometry" />
        </mxCell>
        <mxCell id="8IRLoSpyoqPYh5H4hLr8-20" value="用户C" style="rounded=0;whiteSpace=wrap;html=1;" vertex="1" parent="8IRLoSpyoqPYh5H4hLr8-26">
          <mxGeometry x="627" y="20" width="120" height="60" as="geometry" />
        </mxCell>
        <mxCell id="8IRLoSpyoqPYh5H4hLr8-56" value="手机端" style="text;html=1;strokeColor=none;fillColor=none;align=center;verticalAlign=middle;whiteSpace=wrap;rounded=0;" vertex="1" parent="8IRLoSpyoqPYh5H4hLr8-26">
          <mxGeometry width="60" height="30" as="geometry" />
        </mxCell>
        <mxCell id="8IRLoSpyoqPYh5H4hLr8-27" style="edgeStyle=orthogonalEdgeStyle;rounded=0;orthogonalLoop=1;jettySize=auto;html=1;entryX=0.5;entryY=0;entryDx=0;entryDy=0;" edge="1" parent="1" source="8IRLoSpyoqPYh5H4hLr8-24" target="8IRLoSpyoqPYh5H4hLr8-23">
          <mxGeometry relative="1" as="geometry" />
        </mxCell>
        <mxCell id="8IRLoSpyoqPYh5H4hLr8-28" value="HTTP" style="text;html=1;strokeColor=none;fillColor=none;align=center;verticalAlign=middle;whiteSpace=wrap;rounded=0;" vertex="1" parent="1">
          <mxGeometry x="420" y="170" width="60" height="30" as="geometry" />
        </mxCell>
        <mxCell id="8IRLoSpyoqPYh5H4hLr8-46" value="推送初步消息" style="edgeStyle=orthogonalEdgeStyle;rounded=0;orthogonalLoop=1;jettySize=auto;html=1;entryX=0;entryY=0.5;entryDx=0;entryDy=0;" edge="1" parent="1" source="8IRLoSpyoqPYh5H4hLr8-30" target="8IRLoSpyoqPYh5H4hLr8-40">
          <mxGeometry relative="1" as="geometry">
            <Array as="points">
              <mxPoint x="500" y="585" />
            </Array>
          </mxGeometry>
        </mxCell>
        <mxCell id="8IRLoSpyoqPYh5H4hLr8-30" value="RabbitMQ" style="shape=cylinder3;whiteSpace=wrap;html=1;boundedLbl=1;backgroundOutline=1;size=15;" vertex="1" parent="1">
          <mxGeometry x="402.5" y="480" width="135" height="70" as="geometry" />
        </mxCell>
        <mxCell id="8IRLoSpyoqPYh5H4hLr8-31" style="edgeStyle=orthogonalEdgeStyle;rounded=0;orthogonalLoop=1;jettySize=auto;html=1;entryX=0;entryY=0;entryDx=0;entryDy=45;entryPerimeter=0;" edge="1" parent="1" source="8IRLoSpyoqPYh5H4hLr8-3" target="8IRLoSpyoqPYh5H4hLr8-30">
          <mxGeometry relative="1" as="geometry">
            <Array as="points">
              <mxPoint x="210" y="525" />
            </Array>
          </mxGeometry>
        </mxCell>
        <mxCell id="8IRLoSpyoqPYh5H4hLr8-34" value="stomp" style="edgeLabel;html=1;align=center;verticalAlign=middle;resizable=0;points=[];" vertex="1" connectable="0" parent="8IRLoSpyoqPYh5H4hLr8-31">
          <mxGeometry x="0.3156" y="3" relative="1" as="geometry">
            <mxPoint as="offset" />
          </mxGeometry>
        </mxCell>
        <mxCell id="8IRLoSpyoqPYh5H4hLr8-32" style="edgeStyle=orthogonalEdgeStyle;rounded=0;orthogonalLoop=1;jettySize=auto;html=1;entryX=0.5;entryY=0;entryDx=0;entryDy=0;entryPerimeter=0;" edge="1" parent="1" source="8IRLoSpyoqPYh5H4hLr8-10" target="8IRLoSpyoqPYh5H4hLr8-30">
          <mxGeometry relative="1" as="geometry" />
        </mxCell>
        <mxCell id="8IRLoSpyoqPYh5H4hLr8-35" value="stomp" style="edgeLabel;html=1;align=center;verticalAlign=middle;resizable=0;points=[];" vertex="1" connectable="0" parent="8IRLoSpyoqPYh5H4hLr8-32">
          <mxGeometry x="-0.1143" y="-1" relative="1" as="geometry">
            <mxPoint as="offset" />
          </mxGeometry>
        </mxCell>
        <mxCell id="8IRLoSpyoqPYh5H4hLr8-33" style="edgeStyle=orthogonalEdgeStyle;rounded=0;orthogonalLoop=1;jettySize=auto;html=1;entryX=1;entryY=0.5;entryDx=0;entryDy=0;entryPerimeter=0;" edge="1" parent="1" source="8IRLoSpyoqPYh5H4hLr8-16" target="8IRLoSpyoqPYh5H4hLr8-30">
          <mxGeometry relative="1" as="geometry">
            <Array as="points">
              <mxPoint x="780" y="515" />
            </Array>
          </mxGeometry>
        </mxCell>
        <mxCell id="8IRLoSpyoqPYh5H4hLr8-36" value="stomp" style="edgeLabel;html=1;align=center;verticalAlign=middle;resizable=0;points=[];" vertex="1" connectable="0" parent="8IRLoSpyoqPYh5H4hLr8-33">
          <mxGeometry x="0.2976" y="4" relative="1" as="geometry">
            <mxPoint as="offset" />
          </mxGeometry>
        </mxCell>
        <mxCell id="8IRLoSpyoqPYh5H4hLr8-38" style="edgeStyle=orthogonalEdgeStyle;rounded=0;orthogonalLoop=1;jettySize=auto;html=1;entryX=0.5;entryY=1;entryDx=0;entryDy=0;entryPerimeter=0;" edge="1" parent="1" source="8IRLoSpyoqPYh5H4hLr8-37" target="8IRLoSpyoqPYh5H4hLr8-30">
          <mxGeometry relative="1" as="geometry" />
        </mxCell>
        <mxCell id="8IRLoSpyoqPYh5H4hLr8-39" value="发送消息" style="edgeLabel;html=1;align=center;verticalAlign=middle;resizable=0;points=[];" vertex="1" connectable="0" parent="8IRLoSpyoqPYh5H4hLr8-38">
          <mxGeometry x="-0.3091" y="-1" relative="1" as="geometry">
            <mxPoint as="offset" />
          </mxGeometry>
        </mxCell>
        <mxCell id="8IRLoSpyoqPYh5H4hLr8-37" value="消息生产者" style="rounded=1;whiteSpace=wrap;html=1;" vertex="1" parent="1">
          <mxGeometry x="170" y="550" width="80" height="50" as="geometry" />
        </mxCell>
        <mxCell id="8IRLoSpyoqPYh5H4hLr8-47" style="edgeStyle=orthogonalEdgeStyle;rounded=0;orthogonalLoop=1;jettySize=auto;html=1;entryX=0.596;entryY=1;entryDx=0;entryDy=0;entryPerimeter=0;" edge="1" parent="1" source="8IRLoSpyoqPYh5H4hLr8-40" target="8IRLoSpyoqPYh5H4hLr8-30">
          <mxGeometry relative="1" as="geometry">
            <Array as="points">
              <mxPoint x="690" y="640" />
              <mxPoint x="483" y="640" />
            </Array>
          </mxGeometry>
        </mxCell>
        <mxCell id="8IRLoSpyoqPYh5H4hLr8-50" value="推送消息到指定的队列" style="edgeLabel;html=1;align=center;verticalAlign=middle;resizable=0;points=[];" vertex="1" connectable="0" parent="8IRLoSpyoqPYh5H4hLr8-47">
          <mxGeometry x="-0.0948" y="1" relative="1" as="geometry">
            <mxPoint as="offset" />
          </mxGeometry>
        </mxCell>
        <mxCell id="8IRLoSpyoqPYh5H4hLr8-48" style="edgeStyle=orthogonalEdgeStyle;rounded=0;orthogonalLoop=1;jettySize=auto;html=1;entryX=0;entryY=0.5;entryDx=0;entryDy=0;" edge="1" parent="1" source="8IRLoSpyoqPYh5H4hLr8-40" target="8IRLoSpyoqPYh5H4hLr8-41">
          <mxGeometry relative="1" as="geometry" />
        </mxCell>
        <mxCell id="8IRLoSpyoqPYh5H4hLr8-49" value="读取" style="edgeLabel;html=1;align=center;verticalAlign=middle;resizable=0;points=[];" vertex="1" connectable="0" parent="8IRLoSpyoqPYh5H4hLr8-48">
          <mxGeometry x="-0.4667" relative="1" as="geometry">
            <mxPoint as="offset" />
          </mxGeometry>
        </mxCell>
        <mxCell id="8IRLoSpyoqPYh5H4hLr8-40" value="dispatch" style="rounded=1;whiteSpace=wrap;html=1;" vertex="1" parent="1">
          <mxGeometry x="650" y="560" width="80" height="50" as="geometry" />
        </mxCell>
        <mxCell id="8IRLoSpyoqPYh5H4hLr8-41" value="Redis" style="rounded=1;whiteSpace=wrap;html=1;" vertex="1" parent="1">
          <mxGeometry x="820" y="620" width="80" height="50" as="geometry" />
        </mxCell>
        <mxCell id="8IRLoSpyoqPYh5H4hLr8-42" style="edgeStyle=orthogonalEdgeStyle;rounded=0;orthogonalLoop=1;jettySize=auto;html=1;" edge="1" parent="1" source="8IRLoSpyoqPYh5H4hLr8-18" target="8IRLoSpyoqPYh5H4hLr8-41">
          <mxGeometry relative="1" as="geometry" />
        </mxCell>
        <mxCell id="8IRLoSpyoqPYh5H4hLr8-45" value="存储用户ws注册信息" style="edgeLabel;html=1;align=center;verticalAlign=middle;resizable=0;points=[];" vertex="1" connectable="0" parent="8IRLoSpyoqPYh5H4hLr8-42">
          <mxGeometry x="0.0075" y="-3" relative="1" as="geometry">
            <mxPoint as="offset" />
          </mxGeometry>
        </mxCell>
      </root>
    </mxGraphModel>
  </diagram>
</mxfile>
